# xmcd CD database file
#
# Track frame offsets:
#	150
#	13068
#	27164
#	41608
#	56134
#	71517
#	86219
#	100934
#	114781
#	128658
#	142621
#	157293
#	171983
#	185009
#	212109
#	225391
#	240755
#	255672
#
# Disc length: 3586 seconds
#
# Revision: 0
# Processed by: cddbd v1.5.1PL2 Copyright (c) Steve Scherf et al.
# Submitted via: CDex 1.51
#
DISCID=ee0e0012
DTITLE=Lionel Hampton - Lionel Hampton
DYEAR=2004
DGENRE=Jazz
TTITLE0=Four Or Five Times
TTITLE1=Empty Glass
TTITLE2=Flying Home Nr. 1
TTITLE3=Drum Stomp (Crazy Rhythm)
TTITLE4=Flying Home Nr. 2
TTITLE5=It Don't Mean A Thing (If It Ain't Got That Swing)
TTITLE6=Hamp Boogie Woogie No. 1
TTITLE7=Beulah's Sister Boogie
TTITLE8=Loose Wig
TTITLE9=Cobb's Idea
TTITLE10=High Society
TTITLE11=Memories Of You
TTITLE12=I've Find A New Baby
TTITLE13=Air Mail Special ( Part1 and 2)
TTITLE14=I Know What You Know
TTITLE15=Int The Bag
TTITLE16=He! Ba-Ba-Re-Bob
TTITLE17=Hamp's Boogie Woogie No. 2
EXTD=YEAR: 2004
EXTT0=
EXTT1=
EXTT2=
EXTT3=
EXTT4=
EXTT5=
EXTT6=
EXTT7=
EXTT8=
EXTT9=
EXTT10=
EXTT11=
EXTT12=
EXTT13=
EXTT14=
EXTT15=
EXTT16=
EXTT17=
PLAYORDER=
